<svg xmlns="http://www.w3.org/2000/svg" width="1074" height="488" font-family="system-ui,sans-serif">
<rect width="1074" height="488" fill="#ffffff"/>
<text x="50" y="34" font-size="20" font-weight="700" fill="#0f172a">IOK Farm × MEOK Labs — Phased Build (12-month view)</text>
<text x="50" y="54" font-size="12" fill="#dc2626">red = paperwork long-poles (START day 1, run in parallel)</text>
<text x="380" y="54" font-size="12" fill="#5a5e66">· coloured = build phases · ◆ = revenue milestones</text>
<line x1="280" y1="88" x2="280" y2="368" stroke="#e6e8ec" stroke-width="1"/>
<text x="284" y="82" font-size="11" fill="#94a3b8">M1</text>
<line x1="342" y1="88" x2="342" y2="368" stroke="#e6e8ec" stroke-width="1"/>
<text x="346" y="82" font-size="11" fill="#94a3b8">M2</text>
<line x1="404" y1="88" x2="404" y2="368" stroke="#e6e8ec" stroke-width="1"/>
<text x="408" y="82" font-size="11" fill="#94a3b8">M3</text>
<line x1="466" y1="88" x2="466" y2="368" stroke="#e6e8ec" stroke-width="1"/>
<text x="470" y="82" font-size="11" fill="#94a3b8">M4</text>
<line x1="528" y1="88" x2="528" y2="368" stroke="#e6e8ec" stroke-width="1"/>
<text x="532" y="82" font-size="11" fill="#94a3b8">M5</text>
<line x1="590" y1="88" x2="590" y2="368" stroke="#e6e8ec" stroke-width="1"/>
<text x="594" y="82" font-size="11" fill="#94a3b8">M6</text>
<line x1="652" y1="88" x2="652" y2="368" stroke="#e6e8ec" stroke-width="1"/>
<text x="656" y="82" font-size="11" fill="#94a3b8">M7</text>
<line x1="714" y1="88" x2="714" y2="368" stroke="#e6e8ec" stroke-width="1"/>
<text x="718" y="82" font-size="11" fill="#94a3b8">M8</text>
<line x1="776" y1="88" x2="776" y2="368" stroke="#e6e8ec" stroke-width="1"/>
<text x="780" y="82" font-size="11" fill="#94a3b8">M9</text>
<line x1="838" y1="88" x2="838" y2="368" stroke="#e6e8ec" stroke-width="1"/>
<text x="842" y="82" font-size="11" fill="#94a3b8">M10</text>
<line x1="900" y1="88" x2="900" y2="368" stroke="#e6e8ec" stroke-width="1"/>
<text x="904" y="82" font-size="11" fill="#94a3b8">M11</text>
<line x1="962" y1="88" x2="962" y2="368" stroke="#e6e8ec" stroke-width="1"/>
<text x="966" y="82" font-size="11" fill="#94a3b8">M12</text>
<line x1="1024" y1="88" x2="1024" y2="368" stroke="#e6e8ec" stroke-width="1"/>
<text x="50" y="116" font-size="12" fill="#1e293b">EA discharge permit</text>
<rect x="280" y="102" width="372" height="20" rx="4" fill="#dc2626" stroke-dasharray="6 4" fill-opacity="0.35" stroke="#dc2626" stroke-width="1.5"/>
<text x="50" y="150" font-size="12" fill="#1e293b">DNO 3-phase connection</text>
<rect x="280" y="136" width="248" height="20" rx="4" fill="#dc2626" stroke-dasharray="6 4" fill-opacity="0.35" stroke="#dc2626" stroke-width="1.5"/>
<text x="50" y="184" font-size="12" fill="#1e293b">Planning pre-app → full</text>
<rect x="280" y="170" width="217.0" height="20" rx="4" fill="#dc2626" stroke-dasharray="6 4" fill-opacity="0.35" stroke="#dc2626" stroke-width="1.5"/>
<text x="50" y="218" font-size="12" fill="#1e293b">P0 · Shell + services</text>
<rect x="280" y="204" width="186" height="20" rx="4" fill="#0f766e" stroke="#0f766e" stroke-width="1.5"/>
<text x="50" y="252" font-size="12" fill="#1e293b">P1 · RAS + Water Plant</text>
<rect x="466" y="238" width="248" height="20" rx="4" fill="#0ea5e9" stroke="#0ea5e9" stroke-width="1.5"/>
<text x="50" y="286" font-size="12" fill="#1e293b">P2 · Print Farm + Compute</text>
<rect x="528" y="272" width="155.0" height="20" rx="4" fill="#f59e0b" stroke="#f59e0b" stroke-width="1.5"/>
<text x="50" y="320" font-size="12" fill="#1e293b">P3 · Robotics + Optics</text>
<rect x="714" y="306" width="217.0" height="20" rx="4" fill="#a855f7" stroke="#a855f7" stroke-width="1.5"/>
<text x="50" y="354" font-size="12" fill="#1e293b">P4 · Hatchery + Aquaponics</text>
<rect x="838" y="340" width="186" height="20" rx="4" fill="#16a34a" stroke="#16a34a" stroke-width="1.5"/>
<line x1="714.0" y1="88" x2="714.0" y2="378" stroke="#0f172a" stroke-width="1.5" stroke-dasharray="3 3"/>
<text x="718.0" y="394" font-size="11" fill="#0f172a" font-weight="600">◆ first fish revenue (~M8)</text>
<line x1="838.0" y1="88" x2="838.0" y2="378" stroke="#0f172a" stroke-width="1.5" stroke-dasharray="3 3"/>
<text x="842.0" y="394" font-size="11" fill="#0f172a" font-weight="600">◆ first robotics work (~M10)</text>
<text x="50" y="458" font-size="11" fill="#94a3b8">Order-of-magnitude. Real dates depend on EA/DNO/planning returns + the trout-tonnage decision. Planning brief, not a stamped programme.</text>
</svg>